<svg xmlns="http://www.w3.org/2000/svg" width="420" height="240" viewBox="0 0 420 240" fill="none">
  <defs>
    <filter id="paper-shadow" x="-20%" y="-30%" width="150%" height="170%">
      <feDropShadow dx="0" dy="7" stdDeviation="6" flood-color="#4E5872" flood-opacity=".18"/>
    </filter>
    <pattern id="paper-grain" width="18" height="18" patternUnits="userSpaceOnUse">
      <circle cx="3" cy="5" r=".8" fill="#6E7891" opacity=".1"/>
      <path d="M10 2h5M1 14h7" stroke="#6E7891" stroke-width=".7" opacity=".08"/>
    </pattern>
    <linearGradient id="envelope" x1="64" y1="52" x2="211" y2="187" gradientUnits="userSpaceOnUse">
      <stop stop-color="#F8F2E4"/>
      <stop offset="1" stop-color="#E5EBF7"/>
    </linearGradient>
  </defs>
  <g filter="url(#paper-shadow)">
    <g transform="rotate(-7 136 122)">
      <path d="M48 56h170v126H48z" fill="url(#envelope)" stroke="#FFFDF9" stroke-width="9" stroke-linejoin="round"/>
      <path d="m52 61 81 65 81-65M52 177l58-66m104 66-58-66" stroke="#9AA9CD" stroke-width="3.5" stroke-linecap="round" stroke-linejoin="round"/>
      <path d="M73 83h62M73 94h44" stroke="#BEAACE" stroke-width="3" stroke-linecap="round" opacity=".72"/>
      <circle cx="183" cy="149" r="21" fill="#D99AA8" stroke="#FFFDF9" stroke-width="5"/>
      <path d="m183 136 4 8 9 1-7 6 2 9-8-5-8 5 2-9-7-6 9-1 4-8Z" fill="#F8E9C7"/>
      <path d="M48 56h170v126H48z" fill="url(#paper-grain)" opacity=".52"/>
    </g>
    <g transform="rotate(6 283 111)">
      <path d="M221 28h141v164H221z" fill="#FCFAF4" stroke="#FFFDF9" stroke-width="9"/>
      <path d="M238 49h70M238 61h103M238 73h83" stroke="#CBD4E8" stroke-width="3" stroke-linecap="round"/>
      <path d="M238 95c22-11 40-10 58 1 17 10 34 10 49 1" stroke="#D5A5B2" stroke-width="3" stroke-linecap="round" stroke-dasharray="2 7"/>
      <path d="M245 163c21-32 38-54 61-71" stroke="#718F83" stroke-width="4" stroke-linecap="round"/>
      <path d="M273 128c-20-5-29 2-29 19 17 4 27-3 29-19Zm17-21c-18-9-29-4-32 12 15 8 26 4 32-12Zm15 19c19-5 29 2 29 19-17 4-27-3-29-19Zm8-24c16-11 28-8 34 7-14 10-25 8-34-7Z" fill="#9FC1AE" stroke="#FFFDF9" stroke-width="4" stroke-linejoin="round"/>
      <path d="M241 177h105" stroke="#C9B28A" stroke-width="3" stroke-linecap="round" stroke-dasharray="1 8"/>
      <path d="M221 28h141v164H221z" fill="url(#paper-grain)" opacity=".45"/>
    </g>
  </g>
  <g transform="rotate(-10 326 57)">
    <path d="M299 34h55v47h-55z" fill="#C6D6F1" stroke="#FFFDF9" stroke-width="7"/>
    <path d="M304 39h45v37h-45z" stroke="#7186B7" stroke-width="2" stroke-dasharray="3 3"/>
    <path d="M326 47c10 0 17 7 17 17-6-3-12-3-17 2-5-5-11-5-17-2 0-10 7-17 17-17Z" fill="#F4D89B"/>
  </g>
  <g stroke="#FFFDF9" stroke-linecap="round" stroke-linejoin="round">
    <path d="M68 37c12-17 22-22 31-14 6 6 2 16-10 27" stroke-width="8"/>
    <path d="M68 37c12-17 22-22 31-14 6 6 2 16-10 27" stroke="#798CB9" stroke-width="3"/>
    <path d="M346 172c20-17 35-17 42-4 6 11-2 24-22 37" stroke-width="9"/>
    <path d="M346 172c20-17 35-17 42-4 6 11-2 24-22 37" stroke="#C08A9A" stroke-width="3.5"/>
    <path d="m374 186 7 3-4 7" stroke="#C08A9A" stroke-width="3"/>
  </g>
  <g transform="rotate(3 207 34)">
    <path d="M169 18h78v25h-78z" fill="#E8D0A4" opacity=".78"/>
    <path d="M174 22h68M178 28h60M181 35h54" stroke="#B49363" stroke-width="1" opacity=".22"/>
  </g>
  <g fill="#A89BCF" stroke="#FFFDF9" stroke-width="3">
    <path d="m38 116 4 9 10 1-8 7 2 10-8-5-9 5 2-10-7-7 10-1 4-9Z"/>
    <path d="m380 73 3 7 8 1-6 5 2 8-7-4-7 4 2-8-6-5 8-1 3-7Z"/>
  </g>
</svg>
