<svg xmlns="http://www.w3.org/2000/svg" width="160" height="160" viewBox="0 0 160 160" fill="none"><path d="M18 35c24-10 44-5 62 10v92c-18-15-38-20-62-10V35Z" fill="#EEF1FB" stroke="#fff" stroke-width="10" stroke-linejoin="round"/><path d="M142 35c-24-10-44-5-62 10v92c18-15 38-20 62-10V35Z" fill="#D7DEF2" stroke="#fff" stroke-width="10" stroke-linejoin="round"/><path d="M80 45v92M33 58c13-3 24-1 35 6M33 76c13-3 24-1 35 6M127 58c-13-3-24-1-35 6M127 76c-13-3-24-1-35 6" stroke="#7182A9" stroke-width="4" stroke-linecap="round"/></svg>
