<svg xmlns="http://www.w3.org/2000/svg" width="160" height="160" viewBox="0 0 160 160" fill="none"><path d="M52 66C35 41 36 15 49 12c15-3 24 26 25 49M106 66c16-27 13-52 0-54-15-2-21 27-20 50" fill="#FDF9F2" stroke="#fff" stroke-width="13" stroke-linejoin="round"/><path d="M80 47c33 0 54 21 54 50s-22 46-54 46-54-17-54-46 21-50 54-50Z" fill="#FDF9F2" stroke="#fff" stroke-width="10"/><circle cx="59" cy="91" r="5" fill="#62718D"/><circle cx="101" cy="91" r="5" fill="#62718D"/><path d="m74 104 6 5 6-5M80 109v9" stroke="#C78F9B" stroke-width="4" stroke-linecap="round"/><path d="M48 110H25M52 118l-23 6M112 110h23M108 118l23 6" stroke="#8795AE" stroke-width="3" stroke-linecap="round"/></svg>
